<svg width="800" height="700" viewBox="0 0 800 700" fill="none" xmlns="http://www.w3.org/2000/svg">
  <rect width="800" height="700" rx="44" fill="#F3FCF6"/>
  <circle cx="180" cy="178" r="132" fill="#E8F9EE"/>
  <circle cx="620" cy="214" r="118" fill="#DFF5E8"/>
  <rect x="148" y="132" width="504" height="436" rx="34" fill="white" stroke="#BFE8C9" stroke-width="3"/>
  <rect x="186" y="176" width="188" height="188" rx="26" fill="#F7FDF9" stroke="#92D8B0" stroke-width="4"/>
  <circle cx="280" cy="270" r="64" fill="#DDF5E6"/>
  <circle cx="280" cy="270" r="34" fill="#68C38D"/>
  <path d="M250 270C250 246.804 268.804 228 292 228H310C333.196 228 352 246.804 352 270V278C352 301.196 333.196 320 310 320H292C268.804 320 250 301.196 250 278V270Z" fill="#A6E0B9"/>
  <path d="M420 220C420 192.386 442.386 170 470 170H490C517.614 170 540 192.386 540 220V240C540 267.614 517.614 290 490 290H470C442.386 290 420 267.614 420 240V220Z" fill="#F0FAF4" stroke="#8FD9AE" stroke-width="6"/>
  <path d="M430 242C430 216.595 450.595 196 476 196H486C511.405 196 532 216.595 532 242V250C532 275.405 511.405 296 486 296H476C450.595 296 430 275.405 430 250V242Z" fill="#7BC997"/>
  <path d="M238 443C238 406.026 267.026 377 304 377H320C356.974 377 386 406.026 386 443V462C386 498.974 356.974 528 320 528H304C267.026 528 238 498.974 238 462V443Z" fill="#EAF8EE" stroke="#A7E1B8" stroke-width="6"/>
  <path d="M446 430C446 392.026 475.026 363 512 363H526C562.974 363 592 392.026 592 430V447C592 483.974 562.974 513 526 513H512C475.026 513 446 483.974 446 447V430Z" fill="#F7FDF8" stroke="#8FD9AE" stroke-width="6"/>
  <path d="M476 410C476 389.013 493.013 372 514 372C534.987 372 552 389.013 552 410V421C552 441.987 534.987 459 514 459C493.013 459 476 441.987 476 421V410Z" fill="#6CBF89"/>
  <path d="M250 542C250 510.026 276.026 484 308 484H330C361.974 484 388 510.026 388 542V560C388 591.974 361.974 618 330 618H308C276.026 618 250 591.974 250 560V542Z" fill="#CFEED7"/>
  <path d="M448 518C448 492.595 468.595 472 494 472H506C531.405 472 552 492.595 552 518V530C552 555.405 531.405 576 506 576H494C468.595 576 448 555.405 448 530V518Z" fill="#98D8B1"/>
  <path d="M182 526C182 496.176 206.176 472 236 472H254C283.824 472 308 496.176 308 526V548C308 577.824 283.824 602 254 602H236C206.176 602 182 577.824 182 548V526Z" fill="#DDF5E6"/>
  <path d="M198 540L228 570L286 500" stroke="#69C08D" stroke-width="12" stroke-linecap="round" stroke-linejoin="round"/>
  <circle cx="610" cy="140" r="32" fill="#7BC997"/>
  <circle cx="650" cy="154" r="18" fill="#A8E2B8"/>
</svg>
